<svg width="65" height="66" viewBox="0 0 65 66" fill="none" xmlns="http://www.w3.org/2000/svg">
<path d="M22.6412 24.4341H20.3902C18.5439 24.4342 16.8789 25.5466 16.1724 27.2524L7.25935 48.7729C6.01457 51.7786 8.22395 55.0853 11.4771 55.0854H11.9166C13.829 55.0854 15.5386 53.8927 16.1998 52.0981L26.1226 25.1665C27.7283 20.8083 31.8804 17.9128 36.525 17.9126H37.6109C42.0714 17.9126 46.0977 20.5859 47.8287 24.6968L57.5347 47.7495C60.3053 54.3295 55.474 61.6069 48.3345 61.6069C44.5005 61.6068 41.0044 59.4107 39.3404 55.9565L34.4771 45.8589H29.0357L31.3912 39.3374H34.8863C37.1405 39.3374 39.196 40.6289 40.1744 42.6597L45.2164 53.1255C45.7933 54.3231 47.0052 55.0854 48.3345 55.0854C50.8099 55.0854 52.4853 52.5622 51.525 50.2808L41.8179 27.228C41.1052 25.5353 39.4476 24.4341 37.6109 24.4341H36.525C34.6126 24.4342 32.9029 25.6269 32.2418 27.4214L30.9693 30.8735L30.9293 30.8599L28.6851 37.0728L22.3189 54.353C20.7131 58.7111 16.5611 61.6069 11.9166 61.6069H11.4771C3.57636 61.6068 -1.78913 53.5774 1.23396 46.2778L10.147 24.7573C11.8629 20.6145 15.9061 17.9127 20.3902 17.9126H25.2613L22.6412 24.4341ZM55.7496 5.29541C56.4226 5.29541 57.0181 5.74924 57.2056 6.39111L57.8463 8.62646C58.3317 10.3086 59.6109 11.6036 61.2877 12.0796L63.5054 12.7212V12.7104C64.1453 12.8986 64.5982 13.4963 64.5982 14.1714C64.5981 14.8464 64.1455 15.4442 63.4947 15.6323L61.2769 16.2632C59.6 16.7502 58.3089 18.0342 57.8345 19.7163L57.1949 21.9399C57.0074 22.5707 56.4338 23.0024 55.7388 23.0024C55.0438 23.0024 54.4703 22.5818 54.2828 21.9399L53.6422 19.7163C53.1567 18.0341 51.8767 16.7391 50.1998 16.2632L47.983 15.6206C47.3431 15.4325 46.8902 14.8348 46.8902 14.1597C46.8904 13.4848 47.343 12.8878 47.9937 12.6997L50.2115 12.0688C51.8884 11.5819 53.1795 10.2979 53.6539 8.61572L54.2935 6.39111C54.4811 5.74924 55.0766 5.29544 55.7496 5.29541Z" fill="url(#paint0_linear_1842_1510)" style=""/>
<defs>
<linearGradient id="paint0_linear_1842_1510" x1="11.0724" y1="51.9752" x2="64.7988" y2="41.8444" gradientUnits="userSpaceOnUse">
<stop stop-color="#FF8491" style="stop-color:#FF8491;stop-color:color(display-p3 1.0000 0.5195 0.5676);stop-opacity:1;"/>
<stop offset="0.278846" stop-color="#5C8DFF" style="stop-color:#5C8DFF;stop-color:color(display-p3 0.3618 0.5533 1.0000);stop-opacity:1;"/>
<stop offset="0.519231" stop-color="#0086F9" style="stop-color:#0086F9;stop-color:color(display-p3 0.0000 0.5255 0.9765);stop-opacity:1;"/>
<stop offset="1" stop-color="#0DBDFC" style="stop-color:#0DBDFC;stop-color:color(display-p3 0.0510 0.7412 0.9882);stop-opacity:1;"/>
</linearGradient>
</defs>
</svg>
